<svg width="1280" height="360" viewBox="0 0 1280 360" fill="none" xmlns="http://www.w3.org/2000/svg" role="img" aria-label="Naveen Kumar GitHub Profile Banner">
  <defs>
    <linearGradient id="bg" x1="0" y1="0" x2="1280" y2="360" gradientUnits="userSpaceOnUse">
      <stop stop-color="#0B1020"/>
      <stop offset="0.5" stop-color="#101A37"/>
      <stop offset="1" stop-color="#0A2A3F"/>
    </linearGradient>
    <radialGradient id="g1" cx="0" cy="0" r="1" gradientUnits="userSpaceOnUse" gradientTransform="translate(1080 80) rotate(135) scale(280 180)">
      <stop stop-color="#22C55E" stop-opacity="0.32"/>
      <stop offset="1" stop-color="#22C55E" stop-opacity="0"/>
    </radialGradient>
    <radialGradient id="g2" cx="0" cy="0" r="1" gradientUnits="userSpaceOnUse" gradientTransform="translate(930 285) rotate(-150) scale(320 210)">
      <stop stop-color="#38BDF8" stop-opacity="0.28"/>
      <stop offset="1" stop-color="#38BDF8" stop-opacity="0"/>
    </radialGradient>
    <filter id="blur" x="-20%" y="-20%" width="140%" height="140%">
      <feGaussianBlur stdDeviation="22"/>
    </filter>
    <linearGradient id="line" x1="128" y1="244" x2="525" y2="244" gradientUnits="userSpaceOnUse">
      <stop stop-color="#34D399"/>
      <stop offset="1" stop-color="#38BDF8"/>
    </linearGradient>
  </defs>

  <rect width="1280" height="360" rx="28" fill="url(#bg)"/>
  <rect x="24" y="24" width="1232" height="312" rx="24" stroke="rgba(255,255,255,0.08)" fill="rgba(255,255,255,0.02)"/>
  <ellipse cx="1080" cy="80" rx="280" ry="180" fill="url(#g1)" filter="url(#blur)"/>
  <ellipse cx="930" cy="285" rx="320" ry="210" fill="url(#g2)" filter="url(#blur)"/>

  <g opacity="0.34" stroke="#7DD3FC" stroke-width="1.5">
    <path d="M180 250C255 160 345 145 418 190C480 227 547 237 625 198"/>
    <path d="M120 130C220 80 320 96 390 152C448 199 522 206 585 176"/>
    <path d="M104 286C170 226 239 206 303 226C373 248 445 258 513 228"/>
  </g>

  <g opacity="0.92">
    <circle cx="176" cy="128" r="8" fill="#D1FAE5"/>
    <circle cx="286" cy="102" r="7" fill="#BAE6FD"/>
    <circle cx="410" cy="154" r="7" fill="#E9D5FF"/>
    <circle cx="520" cy="175" r="8" fill="#BAE6FD"/>
    <circle cx="228" cy="250" r="8" fill="#D1FAE5"/>
    <circle cx="348" cy="221" r="7" fill="#BAE6FD"/>
    <circle cx="470" cy="248" r="8" fill="#D1FAE5"/>
  </g>

  <g stroke="rgba(255,255,255,0.18)" stroke-width="1.5">
    <line x1="176" y1="128" x2="286" y2="102"/>
    <line x1="286" y1="102" x2="410" y2="154"/>
    <line x1="410" y1="154" x2="520" y2="175"/>
    <line x1="228" y1="250" x2="348" y2="221"/>
    <line x1="348" y1="221" x2="470" y2="248"/>
    <line x1="286" y1="102" x2="348" y2="221"/>
    <line x1="410" y1="154" x2="470" y2="248"/>
  </g>

  <rect x="640" y="72" width="540" height="214" rx="22" fill="rgba(8,12,26,0.48)" stroke="rgba(148,163,184,0.20)"/>
  <rect x="676" y="94" width="208" height="6" rx="3" fill="url(#line)"/>
  <text x="676" y="145" fill="#F8FAFC" font-family="Inter, Segoe UI, Arial, sans-serif" font-size="42" font-weight="700">Naveen Kumar</text>
  <text x="676" y="183" fill="#7DD3FC" font-family="Inter, Segoe UI, Arial, sans-serif" font-size="22" font-weight="600">Senior GenAI Engineer</text>
  <text x="676" y="220" fill="#CBD5E1" font-family="Inter, Segoe UI, Arial, sans-serif" font-size="18">Agentic AI  •  LangGraph  •  RAG  •  FastAPI  •  Python</text>
  <text x="676" y="249" fill="#CBD5E1" font-family="Inter, Segoe UI, Arial, sans-serif" font-size="18">Building grounded, memory-aware AI systems</text>

  <g>
    <rect x="676" y="264" width="110" height="28" rx="14" fill="rgba(34,197,94,0.12)" stroke="rgba(34,197,94,0.35)"/>
    <text x="731" y="282" text-anchor="middle" fill="#86EFAC" font-family="Inter, Segoe UI, Arial, sans-serif" font-size="13" font-weight="600">Neo4j</text>

    <rect x="796" y="264" width="126" height="28" rx="14" fill="rgba(56,189,248,0.12)" stroke="rgba(56,189,248,0.35)"/>
    <text x="859" y="282" text-anchor="middle" fill="#BAE6FD" font-family="Inter, Segoe UI, Arial, sans-serif" font-size="13" font-weight="600">pgvector</text>

    <rect x="932" y="264" width="122" height="28" rx="14" fill="rgba(168,85,247,0.12)" stroke="rgba(168,85,247,0.35)"/>
    <text x="993" y="282" text-anchor="middle" fill="#E9D5FF" font-family="Inter, Segoe UI, Arial, sans-serif" font-size="13" font-weight="600">Evaluation</text>

    <rect x="1064" y="264" width="90" height="28" rx="14" fill="rgba(250,204,21,0.12)" stroke="rgba(250,204,21,0.35)"/>
    <text x="1109" y="282" text-anchor="middle" fill="#FDE68A" font-family="Inter, Segoe UI, Arial, sans-serif" font-size="13" font-weight="600">AWS</text>
  </g>
</svg>
